<svg id="Слой_1" data-name="Слой 1" xmlns="http://www.w3.org/2000/svg" viewBox="0 0 57.34 57.34"><defs><style>.cls-2{fill:#f1f1f1;}.cls-3,.cls-6,.cls-8{fill:#e5e5e5;}.cls-4,.cls-7{fill:#1a1a1a;}.cls-5{fill:#262626;}.cls-6{opacity:0.1;}.cls-7{font-size:15.77px;font-family:Ubuntu Medium;}.cls-8{opacity:0.12;}.cls-9{fill:#333;opacity:0.2;}</style></defs><title>10k</title><g class="cls-1"><circle id="_Контур_" data-name="&lt;Контур&gt;" class="cls-2" cx="28.67" cy="28.67" r="28.67"/><circle id="_Контур_2" data-name="&lt;Контур&gt;" class="cls-2" cx="28.67" cy="28.62" r="18.54"/><g id="_Группа_" data-name="&lt;Группа&gt;"><path id="_Составной_контур_" data-name="&lt;Составной контур&gt;" class="cls-3" d="M5375.26,739.51a19.4,19.4,0,1,1,19.4-19.4A19.43,19.43,0,0,1,5375.26,739.51Zm0-37.93a18.53,18.53,0,1,0,18.53,18.53A18.55,18.55,0,0,0,5375.26,701.57Z" transform="translate(-5346.59 -691.44)"/></g><g id="_Группа_2" data-name="&lt;Группа&gt;"><path class="cls-4" d="M5373.23,739.58a19.6,19.6,0,0,1-4-.84,0.62,0.62,0,0,1-.36-0.31,0.62,0.62,0,0,1,.55-0.9,0.62,0.62,0,0,1,.19,0,18.3,18.3,0,0,0,3.75.79,0.62,0.62,0,0,1-.06,1.23h-0.06Zm4,0a0.62,0.62,0,0,1-.06-1.23,18.28,18.28,0,0,0,3.75-.8,0.62,0.62,0,1,1,.38,1.17,19.5,19.5,0,0,1-4,.85h-0.06Zm-11.47-2.43a0.62,0.62,0,0,1-.31-0.08,19.6,19.6,0,0,1-3.31-2.41,0.62,0.62,0,1,1,.82-0.92,18.37,18.37,0,0,0,3.1,2.25A0.62,0.62,0,0,1,5365.79,737.16Zm19,0a0.62,0.62,0,0,1-.31-1.15,18.44,18.44,0,0,0,3.1-2.26,0.62,0.62,0,0,1,.83.92,19.72,19.72,0,0,1-3.31,2.41A0.62,0.62,0,0,1,5384.75,737.15Zm-24.83-5.26a0.62,0.62,0,0,1-.5-0.25,19.64,19.64,0,0,1-2.05-3.54,0.62,0.62,0,0,1,1.12-.5,18.38,18.38,0,0,0,1.92,3.32A0.62,0.62,0,0,1,5359.92,731.89Zm30.68,0a0.62,0.62,0,0,1-.5-1,18.35,18.35,0,0,0,1.92-3.32,0.62,0.62,0,1,1,1.12.5,19.63,19.63,0,0,1-2,3.54A0.62,0.62,0,0,1,5390.61,731.87Zm-33.9-7.18a0.62,0.62,0,0,1-.6-0.49,19.72,19.72,0,0,1-.43-4.07,0.62,0.62,0,0,1,1.23,0,18.53,18.53,0,0,0,.4,3.81,0.61,0.61,0,0,1-.47.73h-0.13Zm37.11,0h-0.13a0.62,0.62,0,0,1-.48-0.73,18.48,18.48,0,0,0,.4-3.81,0.63,0.63,0,0,1,.62-0.67,0.62,0.62,0,0,1,.62.62,19.87,19.87,0,0,1-.42,4.12A0.62,0.62,0,0,1,5393.81,724.66Zm-37.12-7.86h-0.13a0.62,0.62,0,0,1-.48-0.73,19.45,19.45,0,0,1,1.26-3.9,0.62,0.62,0,0,1,1.13.5,18.24,18.24,0,0,0-1.18,3.65A0.62,0.62,0,0,1,5356.69,716.81Zm37.11-.08a0.62,0.62,0,0,1-.6-0.49,18.21,18.21,0,0,0-1.19-3.64,0.62,0.62,0,1,1,1.12-.51,19.52,19.52,0,0,1,1.27,3.89,0.62,0.62,0,0,1-.47.73h-0.13Zm-33.91-7.13a0.61,0.61,0,0,1-.61-0.52,0.61,0.61,0,0,1,.11-0.46,19.7,19.7,0,0,1,2.73-3,0.62,0.62,0,1,1,.83.91,18.49,18.49,0,0,0-2.56,2.85A0.62,0.62,0,0,1,5359.89,709.6Zm30.68-.06a0.62,0.62,0,0,1-.5-0.25,18.48,18.48,0,0,0-2.57-2.84,0.62,0.62,0,0,1,.82-0.92,19.74,19.74,0,0,1,2.75,3A0.62,0.62,0,0,1,5390.57,709.53Zm-24.83-5.22a0.62,0.62,0,0,1-.53-0.31,0.62,0.62,0,0,1,.22-0.84,19.48,19.48,0,0,1,3.74-1.67,0.59,0.59,0,0,1,.19,0,0.62,0.62,0,0,1,.19,1.2,18.3,18.3,0,0,0-3.5,1.57A0.62,0.62,0,0,1,5365.74,704.31Zm19,0a0.61,0.61,0,0,1-.31-0.08,18.22,18.22,0,0,0-3.51-1.55,0.62,0.62,0,0,1,.38-1.17,19.55,19.55,0,0,1,3.74,1.66A0.62,0.62,0,0,1,5384.7,704.27Zm-11.47-2.41a0.62,0.62,0,0,1-.06-1.23,20,20,0,0,1,2.08-.11c0.67,0,1.34,0,2,.1a0.62,0.62,0,0,1-.06,1.23c-0.68-.07-1.31-0.1-1.94-0.1a18.4,18.4,0,0,0-2,.1h-0.07Z" transform="translate(-5346.59 -691.44)"/><path id="_Составной_контур_2" data-name="&lt;Составной контур&gt;" class="cls-4" d="M5373.29,739.41h0a19.37,19.37,0,0,1-4-.84,0.44,0.44,0,0,1,.27-0.83,18.48,18.48,0,0,0,3.79.8A0.44,0.44,0,0,1,5373.29,739.41Zm4,0a0.44,0.44,0,0,1,0-.87,18.5,18.5,0,0,0,3.79-.8,0.44,0.44,0,1,1,.27.83,19.33,19.33,0,0,1-4,.84h0ZM5365.79,737a0.44,0.44,0,0,1-.22-0.06,19.44,19.44,0,0,1-3.28-2.38,0.44,0.44,0,1,1,.58-0.65,18.58,18.58,0,0,0,3.13,2.28A0.44,0.44,0,0,1,5365.79,737Zm19,0a0.44,0.44,0,0,1-.22-0.81,18.65,18.65,0,0,0,3.13-2.28,0.44,0.44,0,0,1,.58.65,19.54,19.54,0,0,1-3.28,2.39A0.44,0.44,0,0,1,5384.75,737Zm-24.83-5.26a0.44,0.44,0,0,1-.35-0.18,19.42,19.42,0,0,1-2-3.51,0.44,0.44,0,1,1,.8-0.36,18.57,18.57,0,0,0,1.94,3.35A0.44,0.44,0,0,1,5359.92,731.71Zm30.68,0a0.44,0.44,0,0,1-.35-0.69,18.55,18.55,0,0,0,1.94-3.35,0.44,0.44,0,1,1,.8.36,19.45,19.45,0,0,1-2,3.51A0.44,0.44,0,0,1,5390.61,731.69Zm-33.9-7.18a0.44,0.44,0,0,1-.43-0.35,19.54,19.54,0,0,1-.43-4,0.44,0.44,0,0,1,.44-0.44h0a0.44,0.44,0,0,1,.44.44,18.7,18.7,0,0,0,.41,3.85,0.44,0.44,0,0,1-.34.52h-0.09Zm37.11,0h-0.09c-0.24,0-.25-0.28-0.2-0.52a18.8,18.8,0,0,0,.54-3.85v-0.05a0.5,0.5,0,0,1,1,0v0.05a19.77,19.77,0,0,1-.62,4A0.72,0.72,0,0,1,5393.81,724.48Zm-37.12-7.86h-0.09a0.44,0.44,0,0,1-.34-0.52,19.28,19.28,0,0,1,1.25-3.86,0.44,0.44,0,0,1,.8.35,18.41,18.41,0,0,0-1.19,3.69A0.44,0.44,0,0,1,5356.69,716.63Zm37.11-.08a0.44,0.44,0,0,1-.43-0.35,18.39,18.39,0,0,0-1.21-3.68,0.44,0.44,0,1,1,.8-0.36,19.31,19.31,0,0,1,1.26,3.85,0.44,0.44,0,0,1-.34.52h-0.09Zm-33.91-7.13a0.44,0.44,0,0,1-.35-0.69,19.54,19.54,0,0,1,2.71-3,0.44,0.44,0,0,1,.59.65,18.67,18.67,0,0,0-2.59,2.88A0.44,0.44,0,0,1,5359.89,709.42Zm30.68-.06a0.44,0.44,0,0,1-.35-0.18,18.7,18.7,0,0,0-2.6-2.87,0.44,0.44,0,1,1,.58-0.65,19.54,19.54,0,0,1,2.72,3A0.44,0.44,0,0,1,5390.57,709.35Zm-24.83-5.22a0.44,0.44,0,0,1-.22-0.81,19.31,19.31,0,0,1,3.7-1.66,0.44,0.44,0,1,1,.27.83,18.5,18.5,0,0,0-3.53,1.58A0.44,0.44,0,0,1,5365.74,704.13Zm19,0a0.44,0.44,0,0,1-.22-0.06,18.45,18.45,0,0,0-3.54-1.57,0.44,0.44,0,0,1,.27-0.83,19.34,19.34,0,0,1,3.71,1.64A0.44,0.44,0,0,1,5384.7,704.09Zm-11.47-2.41a0.44,0.44,0,0,1-.43-0.39c0-.24.15-0.29,0.39-0.32a19.63,19.63,0,0,1,2.07.05h0c0.66,0,1.33-.13,2-0.06a0.37,0.37,0,0,1,.39.4,0.62,0.62,0,0,1-.48.57,18.88,18.88,0,0,0-1.9.09h0a18.93,18.93,0,0,0-2-.12S5373.25,701.68,5373.23,701.68Z" transform="translate(-5346.59 -691.44)"/></g><g id="_Группа_3" data-name="&lt;Группа&gt;"><path id="_Контур_3" data-name="&lt;Контур&gt;" class="cls-5" d="M5379.06,697v-5.3a28.44,28.44,0,0,0-8,0V697h8Z" transform="translate(-5346.59 -691.44)"/><path id="_Контур_4" data-name="&lt;Контур&gt;" class="cls-5" d="M5371.06,744v4.47a28.44,28.44,0,0,0,8,0V744h-8Z" transform="translate(-5346.59 -691.44)"/><path id="_Контур_5" data-name="&lt;Контур&gt;" class="cls-5" d="M5399.06,724h4.58a28.44,28.44,0,0,0,0-8h-4.58v8Z" transform="translate(-5346.59 -691.44)"/><path id="_Контур_6" data-name="&lt;Контур&gt;" class="cls-5" d="M5352.06,716h-5.19a28.44,28.44,0,0,0,0,8h5.19v-8Z" transform="translate(-5346.59 -691.44)"/><path id="_Контур_7" data-name="&lt;Контур&gt;" class="cls-5" d="M5361.48,700.63l-3.45-3.45a28.79,28.79,0,0,0-5.69,5.69l3.45,3.45Z" transform="translate(-5346.59 -691.44)"/><path id="_Контур_8" data-name="&lt;Контур&gt;" class="cls-5" d="M5389,739.58l3.45,3.45a28.85,28.85,0,0,0,5.69-5.69l-3.45-3.45Z" transform="translate(-5346.59 -691.44)"/><path id="_Контур_9" data-name="&lt;Контур&gt;" class="cls-5" d="M5394.73,706.33l3.45-3.45a28.82,28.82,0,0,0-5.69-5.69l-3.45,3.45Z" transform="translate(-5346.59 -691.44)"/><path id="_Контур_10" data-name="&lt;Контур&gt;" class="cls-5" d="M5355.79,733.88l-3.45,3.45A28.82,28.82,0,0,0,5358,743l3.45-3.45Z" transform="translate(-5346.59 -691.44)"/></g><g id="_Группа_4" data-name="&lt;Группа&gt;"><path id="_Контур_11" data-name="&lt;Контур&gt;" class="cls-4" d="M5379.06,697v-5.3a28.44,28.44,0,0,0-8,0V697h8Z" transform="translate(-5346.59 -691.44)"/><path id="_Контур_12" data-name="&lt;Контур&gt;" class="cls-4" d="M5371.06,744v4.47a28.44,28.44,0,0,0,8,0V744h-8Z" transform="translate(-5346.59 -691.44)"/><path id="_Контур_13" data-name="&lt;Контур&gt;" class="cls-4" d="M5399.06,724h4.58a28.44,28.44,0,0,0,0-8h-4.58v8Z" transform="translate(-5346.59 -691.44)"/><path id="_Контур_14" data-name="&lt;Контур&gt;" class="cls-4" d="M5352.06,716h-5.19a28.44,28.44,0,0,0,0,8h5.19v-8Z" transform="translate(-5346.59 -691.44)"/><path id="_Контур_15" data-name="&lt;Контур&gt;" class="cls-4" d="M5361.48,700.63l-3.45-3.45a28.79,28.79,0,0,0-5.69,5.69l3.45,3.45Z" transform="translate(-5346.59 -691.44)"/><path id="_Контур_16" data-name="&lt;Контур&gt;" class="cls-4" d="M5389,739.58l3.45,3.45a28.85,28.85,0,0,0,5.69-5.69l-3.45-3.45Z" transform="translate(-5346.59 -691.44)"/><path id="_Контур_17" data-name="&lt;Контур&gt;" class="cls-4" d="M5394.73,706.33l3.45-3.45a28.82,28.82,0,0,0-5.69-5.69l-3.45,3.45Z" transform="translate(-5346.59 -691.44)"/><path id="_Контур_18" data-name="&lt;Контур&gt;" class="cls-4" d="M5355.79,733.88l-3.45,3.45A28.82,28.82,0,0,0,5358,743l3.45-3.45Z" transform="translate(-5346.59 -691.44)"/></g><path id="_Составной_контур_3" data-name="&lt;Составной контур&gt;" class="cls-6" d="M5375.26,692a28.09,28.09,0,1,1-28.09,28.09A28.12,28.12,0,0,1,5375.26,692h0Zm0-.58a28.67,28.67,0,1,0,28.67,28.67,28.67,28.67,0,0,0-28.67-28.67h0Z" transform="translate(-5346.59 -691.44)"/><text class="cls-7" transform="translate(15.61 33.89)">10К</text><path id="_Составной_контур_4" data-name="&lt;Составной контур&gt;" class="cls-8" d="M5375.26,702.15a18,18,0,1,1-18,18,18,18,0,0,1,18-18h0Zm0-.58a18.54,18.54,0,1,0,18.54,18.54,18.54,18.54,0,0,0-18.54-18.54h0Z" transform="translate(-5346.59 -691.44)"/><path id="_Составной_контур_5" data-name="&lt;Составной контур&gt;" class="cls-9" d="M5375.26,700.71a19.39,19.39,0,1,1-19.39,19.39,19.39,19.39,0,0,1,19.39-19.39h0Zm0-.58a20,20,0,1,0,20,20,20,20,0,0,0-20-20h0Z" transform="translate(-5346.59 -691.44)"/></g></svg>
