<svg id="Слой_1" data-name="Слой 1" xmlns="http://www.w3.org/2000/svg" viewBox="0 0 57.34 57.34"><defs><style>.cls-2{fill:#e16713;}.cls-3,.cls-5,.cls-6,.cls-7{fill:#e5e5e5;}.cls-4{fill:#262626;}.cls-5,.cls-8{opacity:0.2;}.cls-6{font-size:15.77px;font-family:Ubuntu Medium;}.cls-7{opacity:0.12;}.cls-8{fill:#333;}</style></defs><title>500</title><g class="cls-1"><circle id="_Контур_" data-name="&lt;Контур&gt;" class="cls-2" cx="28.67" cy="28.67" r="28.67"/><circle id="_Контур_2" data-name="&lt;Контур&gt;" class="cls-2" cx="28.67" cy="28.67" r="18.54"/><g id="_Группа_" data-name="&lt;Группа&gt;"><path id="_Составной_контур_" data-name="&lt;Составной контур&gt;" class="cls-3" d="M5097.61,739.56a19.4,19.4,0,1,1,19.4-19.4A19.43,19.43,0,0,1,5097.61,739.56Zm0-37.93a18.53,18.53,0,1,0,18.53,18.53A18.55,18.55,0,0,0,5097.61,701.63Z" transform="translate(-5068.94 -691.49)"/></g><g id="_Группа_2" data-name="&lt;Группа&gt;"><path class="cls-2" d="M5095.58,739.63a19.6,19.6,0,0,1-4-.84,0.62,0.62,0,0,1-.36-0.31,0.62,0.62,0,0,1,.55-0.9,0.62,0.62,0,0,1,.19,0,18.3,18.3,0,0,0,3.75.79,0.62,0.62,0,0,1-.06,1.23h-0.06Zm4,0a0.62,0.62,0,0,1-.06-1.23,18.28,18.28,0,0,0,3.75-.8,0.62,0.62,0,1,1,.38,1.17,19.5,19.5,0,0,1-4,.85h-0.06Zm-11.47-2.43a0.62,0.62,0,0,1-.31-0.08,19.6,19.6,0,0,1-3.31-2.41,0.62,0.62,0,1,1,.82-0.92,18.37,18.37,0,0,0,3.1,2.25A0.62,0.62,0,0,1,5088.14,737.21Zm19,0a0.62,0.62,0,0,1-.31-1.15,18.44,18.44,0,0,0,3.1-2.26,0.62,0.62,0,0,1,.83.92,19.72,19.72,0,0,1-3.31,2.41A0.62,0.62,0,0,1,5107.1,737.2Zm-24.83-5.26a0.62,0.62,0,0,1-.5-0.25,19.64,19.64,0,0,1-2.05-3.54,0.62,0.62,0,0,1,1.12-.5,18.38,18.38,0,0,0,1.92,3.32A0.62,0.62,0,0,1,5082.27,731.94Zm30.68,0a0.62,0.62,0,0,1-.5-1,18.35,18.35,0,0,0,1.92-3.32,0.62,0.62,0,1,1,1.12.5,19.63,19.63,0,0,1-2,3.54A0.62,0.62,0,0,1,5113,731.92Zm-33.9-7.18a0.62,0.62,0,0,1-.6-0.49,19.72,19.72,0,0,1-.43-4.07,0.62,0.62,0,0,1,1.23,0,18.53,18.53,0,0,0,.4,3.81,0.61,0.61,0,0,1-.47.73h-0.13Zm37.11,0H5116a0.62,0.62,0,0,1-.48-0.73,18.48,18.48,0,0,0,.4-3.81,0.63,0.63,0,0,1,.62-0.67,0.62,0.62,0,0,1,.62.62,19.87,19.87,0,0,1-.42,4.12A0.62,0.62,0,0,1,5116.16,724.71ZM5079,716.86h-0.13a0.62,0.62,0,0,1-.48-0.73,19.45,19.45,0,0,1,1.26-3.9,0.62,0.62,0,0,1,1.13.5,18.24,18.24,0,0,0-1.18,3.65A0.62,0.62,0,0,1,5079,716.86Zm37.11-.08a0.62,0.62,0,0,1-.6-0.49,18.21,18.21,0,0,0-1.19-3.64,0.62,0.62,0,1,1,1.12-.51,19.52,19.52,0,0,1,1.27,3.89,0.62,0.62,0,0,1-.47.73h-0.13Zm-33.91-7.13a0.61,0.61,0,0,1-.61-0.52,0.61,0.61,0,0,1,.11-0.46,19.7,19.7,0,0,1,2.73-3,0.62,0.62,0,1,1,.83.91,18.49,18.49,0,0,0-2.56,2.85A0.62,0.62,0,0,1,5082.24,709.65Zm30.68-.06a0.62,0.62,0,0,1-.5-0.25,18.48,18.48,0,0,0-2.57-2.84,0.62,0.62,0,0,1,.82-0.92,19.74,19.74,0,0,1,2.75,3A0.62,0.62,0,0,1,5112.93,709.58Zm-24.83-5.22a0.62,0.62,0,0,1-.53-0.31,0.62,0.62,0,0,1,.22-0.84,19.48,19.48,0,0,1,3.74-1.67,0.59,0.59,0,0,1,.19,0,0.62,0.62,0,0,1,.19,1.2,18.3,18.3,0,0,0-3.5,1.57A0.62,0.62,0,0,1,5088.09,704.36Zm19,0a0.61,0.61,0,0,1-.31-0.08,18.22,18.22,0,0,0-3.51-1.55,0.62,0.62,0,0,1,.38-1.17,19.55,19.55,0,0,1,3.74,1.66A0.62,0.62,0,0,1,5107.05,704.32Zm-11.47-2.41a0.62,0.62,0,0,1-.06-1.23,20,20,0,0,1,2.08-.11c0.67,0,1.34,0,2,.1a0.62,0.62,0,0,1-.06,1.23c-0.68-.07-1.31-0.1-1.94-0.1a18.4,18.4,0,0,0-2,.1h-0.07Z" transform="translate(-5068.94 -691.49)"/><path id="_Составной_контур_2" data-name="&lt;Составной контур&gt;" class="cls-2" d="M5095.64,739.46h0a19.37,19.37,0,0,1-4-.84,0.44,0.44,0,0,1,.27-0.83,18.48,18.48,0,0,0,3.79.8A0.44,0.44,0,0,1,5095.64,739.46Zm4,0a0.44,0.44,0,0,1,0-.87,18.5,18.5,0,0,0,3.79-.8,0.44,0.44,0,1,1,.27.83,19.33,19.33,0,0,1-4,.84h0ZM5088.14,737a0.44,0.44,0,0,1-.22-0.06,19.44,19.44,0,0,1-3.28-2.38,0.44,0.44,0,1,1,.58-0.65,18.58,18.58,0,0,0,3.13,2.28A0.44,0.44,0,0,1,5088.14,737Zm19,0a0.44,0.44,0,0,1-.22-0.81,18.65,18.65,0,0,0,3.13-2.28,0.44,0.44,0,0,1,.58.65,19.54,19.54,0,0,1-3.28,2.39A0.44,0.44,0,0,1,5107.1,737Zm-24.83-5.26a0.44,0.44,0,0,1-.35-0.18,19.42,19.42,0,0,1-2-3.51,0.44,0.44,0,1,1,.8-0.36,18.57,18.57,0,0,0,1.94,3.35A0.44,0.44,0,0,1,5082.27,731.76Zm30.68,0a0.44,0.44,0,0,1-.35-0.69,18.55,18.55,0,0,0,1.94-3.35,0.44,0.44,0,1,1,.8.36,19.45,19.45,0,0,1-2,3.51A0.44,0.44,0,0,1,5113,731.74Zm-33.9-7.18a0.44,0.44,0,0,1-.43-0.35,19.54,19.54,0,0,1-.43-4,0.44,0.44,0,0,1,.44-0.44h0a0.44,0.44,0,0,1,.44.44,18.7,18.7,0,0,0,.41,3.85,0.44,0.44,0,0,1-.34.52h-0.09Zm37.11,0h-0.09a0.46,0.46,0,0,1-.37-0.52,18.63,18.63,0,0,0,.36-3.85V720.1a0.5,0.5,0,0,1,1,0v0.05a19.56,19.56,0,0,1-.45,4A0.47,0.47,0,0,1,5116.16,724.53ZM5079,716.68H5079a0.44,0.44,0,0,1-.34-0.52,19.28,19.28,0,0,1,1.25-3.86,0.44,0.44,0,0,1,.8.35,18.41,18.41,0,0,0-1.19,3.69A0.44,0.44,0,0,1,5079,716.68Zm37.11-.08a0.44,0.44,0,0,1-.43-0.35,18.39,18.39,0,0,0-1.21-3.68,0.44,0.44,0,0,1,.8-0.36,19.31,19.31,0,0,1,1.26,3.85,0.44,0.44,0,0,1-.34.52h-0.09Zm-33.91-7.13a0.44,0.44,0,0,1-.35-0.69,19.54,19.54,0,0,1,2.71-3,0.44,0.44,0,0,1,.59.65,18.67,18.67,0,0,0-2.59,2.88A0.44,0.44,0,0,1,5082.24,709.47Zm30.68-.06a0.44,0.44,0,0,1-.35-0.18,18.7,18.7,0,0,0-2.6-2.87,0.44,0.44,0,1,1,.58-0.65,19.54,19.54,0,0,1,2.72,3A0.44,0.44,0,0,1,5112.93,709.4Zm-24.83-5.22a0.44,0.44,0,0,1-.22-0.81,19.31,19.31,0,0,1,3.7-1.66,0.44,0.44,0,1,1,.27.83,18.5,18.5,0,0,0-3.53,1.58A0.44,0.44,0,0,1,5088.09,704.18Zm19,0a0.44,0.44,0,0,1-.22-0.06,18.45,18.45,0,0,0-3.54-1.57,0.44,0.44,0,0,1,.27-0.83,19.34,19.34,0,0,1,3.71,1.64A0.44,0.44,0,0,1,5107.05,704.14Zm-11.47-2.41a0.44,0.44,0,0,1-.43-0.39c0-.24.15-0.32,0.39-0.34a19.59,19.59,0,0,1,2.07,0h0c0.66,0,1.33-.1,2,0a0.38,0.38,0,0,1,.39.41,0.59,0.59,0,0,1-.48.56,18.84,18.84,0,0,0-1.9.07h0a18.86,18.86,0,0,0-2-.09S5095.6,701.73,5095.58,701.73Z" transform="translate(-5068.94 -691.49)"/></g><g id="_Группа_3" data-name="&lt;Группа&gt;"><path id="_Контур_3" data-name="&lt;Контур&gt;" class="cls-4" d="M5102.06,697v-5.25a37.78,37.78,0,0,0-4-.28,25.4,25.4,0,0,0-4,.28V697h8Z" transform="translate(-5068.94 -691.49)"/><path id="_Контур_4" data-name="&lt;Контур&gt;" class="cls-4" d="M5094.06,744v4.52a25.4,25.4,0,0,0,4,.28,37.78,37.78,0,0,0,4-.28V744h-8Z" transform="translate(-5068.94 -691.49)"/><path id="_Контур_5" data-name="&lt;Контур&gt;" class="cls-4" d="M5121.06,724H5126a28.44,28.44,0,0,0,0-8h-4.93v8Z" transform="translate(-5068.94 -691.49)"/><path id="_Контур_6" data-name="&lt;Контур&gt;" class="cls-4" d="M5074.06,716h-4.84a28.44,28.44,0,0,0,0,8h4.84v-8Z" transform="translate(-5068.94 -691.49)"/><path id="_Контур_7" data-name="&lt;Контур&gt;" class="cls-4" d="M5083.83,700.68l-3.45-3.45a28.79,28.79,0,0,0-5.69,5.69l3.45,3.45Z" transform="translate(-5068.94 -691.49)"/><path id="_Контур_8" data-name="&lt;Контур&gt;" class="cls-4" d="M5111.38,739.63l3.45,3.45a28.85,28.85,0,0,0,5.69-5.69l-3.45-3.45Z" transform="translate(-5068.94 -691.49)"/><path id="_Контур_9" data-name="&lt;Контур&gt;" class="cls-4" d="M5117.08,706.38l3.45-3.45a28.83,28.83,0,0,0-5.69-5.69l-3.45,3.45Z" transform="translate(-5068.94 -691.49)"/><path id="_Контур_10" data-name="&lt;Контур&gt;" class="cls-4" d="M5078.14,733.93l-3.45,3.45a28.82,28.82,0,0,0,5.69,5.69l3.45-3.45Z" transform="translate(-5068.94 -691.49)"/></g><g id="_Группа_4" data-name="&lt;Группа&gt;"><path id="_Контур_11" data-name="&lt;Контур&gt;" class="cls-3" d="M5102.06,697v-5.25a37.78,37.78,0,0,0-4-.28,25.4,25.4,0,0,0-4,.28V697h8Z" transform="translate(-5068.94 -691.49)"/><path id="_Контур_12" data-name="&lt;Контур&gt;" class="cls-3" d="M5094.06,744v4.52a25.4,25.4,0,0,0,4,.28,37.78,37.78,0,0,0,4-.28V744h-8Z" transform="translate(-5068.94 -691.49)"/><path id="_Контур_13" data-name="&lt;Контур&gt;" class="cls-3" d="M5121.06,724H5126a28.44,28.44,0,0,0,0-8h-4.93v8Z" transform="translate(-5068.94 -691.49)"/><path id="_Контур_14" data-name="&lt;Контур&gt;" class="cls-3" d="M5074.06,716h-4.84a28.44,28.44,0,0,0,0,8h4.84v-8Z" transform="translate(-5068.94 -691.49)"/><path id="_Контур_15" data-name="&lt;Контур&gt;" class="cls-3" d="M5083.83,700.68l-3.45-3.45a28.79,28.79,0,0,0-5.69,5.69l3.45,3.45Z" transform="translate(-5068.94 -691.49)"/><path id="_Контур_16" data-name="&lt;Контур&gt;" class="cls-3" d="M5111.38,739.63l3.45,3.45a28.85,28.85,0,0,0,5.69-5.69l-3.45-3.45Z" transform="translate(-5068.94 -691.49)"/><path id="_Контур_17" data-name="&lt;Контур&gt;" class="cls-3" d="M5117.08,706.38l3.45-3.45a28.83,28.83,0,0,0-5.69-5.69l-3.45,3.45Z" transform="translate(-5068.94 -691.49)"/><path id="_Контур_18" data-name="&lt;Контур&gt;" class="cls-3" d="M5078.14,733.93l-3.45,3.45a28.82,28.82,0,0,0,5.69,5.69l3.45-3.45Z" transform="translate(-5068.94 -691.49)"/></g><path id="_Составной_контур_3" data-name="&lt;Составной контур&gt;" class="cls-5" d="M5097.61,692.07a28.09,28.09,0,1,1-28.09,28.09,28.12,28.12,0,0,1,28.09-28.09h0Zm0-.58a28.67,28.67,0,1,0,28.67,28.67,28.67,28.67,0,0,0-28.67-28.67h0Z" transform="translate(-5068.94 -691.49)"/><text class="cls-6" transform="translate(16.35 33.89)">500</text><path id="_Составной_контур_4" data-name="&lt;Составной контур&gt;" class="cls-7" d="M5097.61,702.2a18,18,0,1,1-18,18,18,18,0,0,1,18-18h0Zm0-.58a18.54,18.54,0,1,0,18.54,18.54,18.54,18.54,0,0,0-18.54-18.54h0Z" transform="translate(-5068.94 -691.49)"/><path id="_Составной_контур_5" data-name="&lt;Составной контур&gt;" class="cls-8" d="M5097.61,700.76a19.39,19.39,0,1,1-19.39,19.39,19.39,19.39,0,0,1,19.39-19.39h0Zm0-.58a20,20,0,1,0,20,20,20,20,0,0,0-20-20h0Z" transform="translate(-5068.94 -691.49)"/></g></svg>
